<svg width="1058" height="538" viewBox="0 0 10580 5380" xmlns="http://www.w3.org/2000/svg" xmlns:xlink="http://www.w3.org/1999/xlink" overflow="hidden"><g id="layer101" stroke="none" fill="#FEFEFE"><path d="M4530 4419C3750 4331 3242 3711 3301 2918 3328 2561 3464 2253 3699 2019 3894 1825 4113 1713 4385 1670 4485 1654 4719 1656 4822 1675 5251 1750 5559 2009 5691 2404 5715 2478 5740 2609 5740 2668L5740 2710 4790 2710 3840 2710 3840 2825C3840 3182 3933 3527 4093 3765 4146 3844 4260 3961 4336 4016 4428 4082 4548 4138 4657 4166 4821 4208 5069 4197 5249 4139 5341 4110 5416 4070 5510 3999 5598 3932 5656 3862 5722 3743 5763 3667 5769 3663 5801 3680 5827 3694 5825 3709 5788 3798 5722 3956 5572 4138 5430 4231 5188 4391 4869 4457 4530 4419ZM5300 2559C5300 2472 5270 2299 5239 2206 5200 2088 5150 2001 5076 1922 4953 1790 4819 1732 4620 1723 4491 1717 4419 1730 4315 1779 4133 1864 3986 2048 3907 2288 3877 2377 3840 2548 3840 2598 3840 2607 3993 2610 4570 2610L5300 2610 5300 2559Z"/><path d="M350 4356 350 4313 458 4307C655 4297 711 4249 740 4070 746 4028 750 3506 750 2598 750 1076 751 1104 697 985 656 897 587 860 460 860 361 860 350 855 350 809L350 770 990 770 1630 770 1630 814 1630 857 1548 864C1502 867 1448 875 1427 881 1340 905 1262 1016 1240 1148 1233 1193 1230 1417 1232 1833L1235 2451 1735 1914C2010 1620 2268 1341 2308 1297 2529 1049 2475 887 2163 863L2080 857 2080 814 2080 770 2725 770 3370 770 3370 810C3370 837 3366 850 3357 850 3349 850 3294 855 3234 861 3001 884 2883 936 2692 1103 2598 1184 1814 2037 1816 2056 1817 2068 2981 3738 3069 3855 3135 3943 3315 4124 3391 4181 3493 4256 3573 4289 3684 4302L3780 4314 3780 4357 3780 4400 3020 4400 2260 4400 2260 4355C2260 4330 2263 4310 2268 4309 2272 4309 2327 4305 2391 4301 2569 4289 2640 4244 2640 4144 2640 4105 2607 4056 2177 3444 1922 3081 1658 2705 1590 2608 1521 2510 1463 2430 1460 2430 1457 2430 1404 2485 1342 2551L1229 2673 1232 3379C1235 4049 1236 4088 1255 4139 1297 4257 1376 4300 1551 4300 1657 4300 1660 4302 1660 4373L1660 4400 1005 4400 350 4400 350 4356Z"/><path d="M6360 3218C6111 2573 5890 2010 5868 1967 5821 1873 5760 1804 5702 1778 5674 1765 5614 1754 5534 1747L5410 1736 5410 1698 5410 1660 6091 1660 6771 1660 6768 1698 6765 1735 6685 1743C6566 1754 6505 1775 6457 1820L6415 1859 6416 1937C6416 2015 6418 2018 6730 2838 6906 3298 7047 3655 7051 3648 7065 3621 7699 2004 7706 1977 7722 1908 7671 1821 7588 1779 7549 1759 7411 1741 7298 1740L7240 1740 7240 1700 7240 1660 7930 1660 8620 1660 8620 1700C8620 1738 8619 1740 8588 1740 8501 1741 8349 1761 8312 1775 8261 1796 8215 1846 8199 1900 8189 1932 8190 1951 8203 2002 8216 2056 8807 3598 8830 3639 8835 3649 8844 3637 8858 3599 8869 3569 9016 3197 9184 2771 9410 2199 9490 1986 9490 1956 9490 1895 9452 1847 9373 1806 9326 1782 9190 1752 9094 1744L9010 1737 9010 1699 9010 1660 9635 1660 10260 1660 10260 1699 10260 1737 10180 1744C10008 1758 9837 1805 9764 1859 9718 1892 9653 1998 9580 2160 9516 2302 8670 4365 8670 4380 8670 4385 8657 4390 8641 4390 8605 4390 8646 4492 8145 3150 7942 2608 7775 2163 7773 2161 7772 2159 7768 2159 7765 2162 7762 2165 7559 2662 7314 3266 7069 3871 6866 4371 6863 4378 6860 4384 6848 4390 6836 4390 6815 4390 6774 4289 6360 3218Z"/><path d="M4430 1346C4430 1339 4441 1325 4455 1316 4479 1300 4530 1213 4530 1188 4530 1181 4507 1122 4478 1056 4444 979 4419 935 4408 932 4370 922 4393 915 4460 915 4499 915 4530 918 4530 923 4530 927 4523 930 4514 930 4491 930 4500 976 4537 1059L4566 1123 4598 1047C4633 963 4638 930 4615 930 4607 930 4600 927 4600 923 4600 918 4620 915 4645 915 4694 915 4697 917 4675 934 4667 940 4622 1033 4574 1140 4527 1247 4483 1341 4478 1348 4464 1364 4430 1363 4430 1346Z"/><path d="M7729 1186C7673 1166 7632 1132 7609 1087 7591 1053 7588 1034 7592 972 7596 912 7602 892 7626 857 7660 809 7722 770 7765 771L7795 771 7765 784C7701 812 7670 876 7670 982 7670 1071 7694 1131 7742 1160 7784 1185 7846 1186 7887 1160 7941 1127 7945 1051 7893 1032 7870 1024 7882 1021 7955 1021 8039 1020 8043 1021 8022 1036 8004 1048 8000 1061 8000 1099 8000 1144 7998 1148 7973 1153 7957 1156 7920 1168 7890 1179 7827 1202 7780 1205 7729 1186Z"/><path d="M3670 1179C3670 1175 3678 1170 3688 1167 3714 1161 3720 1121 3720 966 3720 823 3711 791 3670 779 3656 775 3714 772 3798 773L3952 775 3976 803C4025 860 3996 949 3920 975L3888 986 3964 1070C4006 1117 4052 1159 4065 1164 4105 1180 4094 1188 4035 1188L3980 1187 3902 1094C3801 972 3780 964 3780 1043 3780 1118 3792 1162 3812 1168 3853 1178 3825 1187 3750 1187 3706 1187 3670 1183 3670 1179ZM3897 955C3944 924 3933 823 3880 795 3842 775 3794 776 3786 796 3777 818 3779 965 3788 974 3798 985 3871 972 3897 955Z"/><path d="M4153 1169C4107 1140 4086 1102 4086 1049 4086 905 4293 856 4378 980 4420 1042 4397 1127 4328 1170 4283 1197 4196 1197 4153 1169ZM4297 1156C4323 1133 4325 1127 4325 1050 4325 973 4323 967 4297 944 4226 883 4150 939 4150 1050 4150 1161 4226 1217 4297 1156Z"/><path d="M4728 1179C4701 1164 4706 1118 4738 1088 4753 1073 4791 1050 4823 1036 4874 1014 4880 1008 4880 981 4880 944 4857 920 4822 920 4789 920 4777 928 4761 958 4746 986 4710 988 4710 960 4710 913 4862 889 4911 929 4933 946 4935 958 4940 1052L4945 1155 4974 1153C5001 1151 5002 1151 4985 1170 4962 1196 4914 1196 4898 1171 4887 1152 4886 1152 4851 1171 4812 1192 4755 1195 4728 1179ZM4855 1154C4877 1140 4880 1130 4880 1084L4880 1029 4848 1046C4800 1070 4770 1100 4770 1125 4770 1169 4811 1183 4855 1154Z"/><path d="M5020 1180C5020 1176 5029 1170 5040 1167 5059 1162 5060 1153 5060 981L5060 801 5033 786C5005 771 5006 771 5063 770L5120 770 5120 965C5120 1130 5122 1162 5135 1166 5167 1178 5148 1186 5085 1187 5049 1187 5020 1184 5020 1180Z"/><path d="M5350 1181C5350 1176 5358 1170 5368 1167 5394 1161 5400 1121 5400 975 5400 812 5396 792 5356 781 5333 774 5357 772 5448 771 5576 770 5629 782 5656 818 5685 856 5662 926 5613 949L5585 963 5620 972C5664 984 5706 1023 5713 1058 5720 1097 5696 1146 5662 1164 5628 1181 5350 1196 5350 1181ZM5606 1147C5627 1129 5633 1115 5633 1082 5633 1007 5605 984 5500 977L5465 975 5466 1057C5467 1107 5472 1145 5480 1155 5500 1179 5574 1175 5606 1147ZM5554 949C5569 942 5584 923 5590 904 5610 845 5582 796 5524 785 5470 775 5460 790 5460 881L5460 960 5495 960C5514 960 5540 955 5554 949Z"/><path d="M5832 1170C5703 1091 5761 910 5916 910 6032 910 6107 1020 6057 1117 6021 1187 5905 1214 5832 1170ZM5962 1169C5988 1155 6010 1101 6010 1051 6010 934 5909 879 5847 963 5822 995 5818 1078 5838 1126 5858 1174 5916 1194 5962 1169Z"/><path d="M6162 1182C6141 1168 6130 1110 6130 1018 6130 945 6127 930 6115 930 6105 930 6115 915 6141 890 6164 868 6185 850 6187 850 6188 850 6190 865 6190 884 6190 917 6192 919 6228 923L6265 927 6228 928 6190 930 6190 1039C6190 1125 6193 1152 6206 1164 6225 1184 6231 1184 6256 1165 6284 1144 6296 1147 6275 1170 6256 1191 6188 1198 6162 1182Z"/><path d="M6338 1179C6313 1165 6315 1119 6341 1091 6353 1078 6391 1055 6426 1039 6483 1014 6490 1008 6490 982 6490 918 6399 896 6372 953 6356 985 6320 991 6320 960 6320 913 6472 889 6521 929 6543 946 6545 958 6550 1052L6555 1155 6584 1153C6611 1151 6612 1151 6595 1170 6572 1196 6524 1196 6508 1171 6496 1152 6496 1152 6458 1171 6418 1192 6365 1195 6338 1179ZM6460 1155C6488 1141 6490 1135 6490 1085L6490 1030 6451 1049C6400 1076 6380 1096 6380 1124 6380 1168 6411 1180 6460 1155Z"/><path d="M6630 1180C6630 1176 6639 1170 6650 1167 6668 1162 6670 1153 6670 1055 6670 957 6668 948 6650 943 6621 935 6626 923 6661 916 6713 906 6720 908 6720 936L6720 962 6751 936C6794 900 6870 899 6905 935 6928 957 6930 966 6930 1060 6930 1153 6932 1162 6950 1167 6990 1178 6968 1187 6905 1187 6869 1187 6840 1184 6840 1182 6840 1179 6848 1171 6858 1164 6872 1154 6875 1136 6875 1063 6874 1013 6869 965 6862 953 6844 921 6788 922 6755 955 6732 977 6730 987 6730 1070 6730 1153 6732 1162 6750 1167 6791 1178 6768 1187 6700 1187 6662 1187 6630 1184 6630 1180Z"/><path d="M7010 1179C7010 1174 7017 1170 7025 1170 7046 1170 7051 1138 7048 1035 7045 949 7044 946 7020 939 6993 932 6996 930 7062 912L7098 902 7102 1027C7104 1132 7108 1154 7123 1164 7132 1171 7140 1179 7140 1182 7140 1184 7111 1187 7075 1187 7039 1187 7010 1184 7010 1179Z"/><path d="M7229 1173C7144 1121 7152 985 7242 930 7297 897 7410 907 7410 945 7410 972 7388 972 7364 946 7334 915 7311 913 7277 941 7227 980 7218 1090 7261 1144 7287 1177 7322 1184 7367 1163 7425 1137 7427 1137 7397 1164 7374 1186 7359 1190 7312 1190 7277 1190 7245 1183 7229 1173Z"/><path d="M8087 1172C8050 1132 8077 1091 8169 1046 8234 1015 8235 1014 8235 975 8235 941 8231 934 8209 926 8170 913 8131 926 8124 955 8120 970 8111 980 8100 980 8070 980 8066 960 8089 936 8107 918 8122 915 8191 915 8295 915 8300 921 8300 1044 8300 1146 8307 1165 8339 1155 8366 1147 8367 1166 8341 1180 8312 1195 8282 1192 8263 1172 8246 1156 8243 1156 8210 1172 8165 1196 8108 1195 8087 1172ZM8224 1149C8245 1133 8250 1120 8250 1086 8250 1063 8247 1041 8244 1037 8236 1029 8182 1056 8153 1083 8092 1138 8159 1200 8224 1149Z"/><path d="M8390 1183C8390 1182 8399 1171 8410 1160 8426 1144 8430 1127 8430 1066 8430 983 8418 940 8395 940 8363 940 8382 923 8425 913L8470 903 8470 931C8470 966 8472 967 8505 934 8525 914 8538 909 8573 912 8603 914 8616 920 8618 933 8623 958 8593 965 8570 945 8553 930 8546 929 8525 938 8491 954 8480 987 8480 1075 8480 1127 8484 1153 8495 1164 8503 1172 8510 1180 8510 1182 8510 1184 8483 1186 8450 1186 8417 1186 8390 1185 8390 1183Z"/><path d="M8692 1170C8656 1148 8630 1098 8630 1050 8630 1007 8663 948 8698 928 8735 906 8809 905 8836 925 8867 948 8870 944 8870 880 8870 827 8867 816 8844 795L8817 770 8869 770 8920 770 8920 946C8920 1121 8926 1160 8955 1160 8982 1160 8970 1177 8939 1184 8890 1194 8880 1191 8880 1170 8880 1150 8880 1150 8848 1170 8805 1196 8735 1196 8692 1170ZM8845 1149C8873 1121 8874 982 8846 952 8810 911 8740 922 8713 974 8691 1015 8692 1101 8714 1135 8746 1183 8804 1189 8845 1149Z"/><path d="M9064 1180C9053 1176 9031 1158 9017 1140 8979 1095 8979 1015 9016 970 9052 928 9090 910 9146 910 9185 910 9197 915 9226 944 9284 1002 9275 1010 9161 1010 9103 1010 9059 1014 9055 1020 9051 1026 9052 1049 9055 1072 9070 1156 9152 1197 9213 1150 9241 1128 9250 1125 9250 1140 9250 1146 9235 1159 9218 1170 9183 1191 9104 1196 9064 1180ZM9200 980C9200 952 9165 920 9135 920 9106 920 9060 960 9060 985 9060 997 9074 1000 9130 1000 9193 1000 9200 998 9200 980Z"/><path d="M9290 1179C9290 1174 9296 1170 9304 1170 9325 1170 9330 1147 9330 1062 9330 966 9323 940 9299 940 9264 940 9280 925 9325 914 9370 904 9370 904 9379 934 9384 951 9389 959 9389 953 9392 917 9515 896 9553 925 9577 943 9589 997 9590 1088 9590 1143 9594 1162 9605 1166 9637 1178 9618 1186 9555 1187 9492 1187 9470 1178 9510 1167 9528 1162 9530 1154 9530 1073 9530 945 9503 910 9430 940 9394 955 9380 993 9380 1076 9380 1147 9386 1170 9406 1170 9414 1170 9420 1174 9420 1178 9420 1183 9391 1187 9355 1187 9319 1187 9290 1184 9290 1179Z"/><path d="M9665 1172C9656 1149 9660 1100 9670 1100 9676 1100 9680 1107 9680 1115 9680 1160 9767 1199 9798 1168 9824 1142 9812 1110 9763 1081 9665 1022 9645 977 9694 931 9714 913 9727 909 9774 912L9830 915 9830 949 9830 982 9800 950C9768 916 9735 912 9717 941 9700 968 9716 988 9780 1020 9866 1063 9883 1118 9827 1170 9808 1188 9795 1191 9738 1188 9693 1186 9669 1180 9665 1172Z"/><path d="M7950 871C7950 845 7912 800 7876 783L7845 769 7885 775C7907 778 7935 782 7948 783 7968 785 7970 790 7970 838 7970 866 7966 890 7960 890 7955 890 7950 882 7950 871Z"/><path d="M7047 814C7043 810 7040 798 7040 788 7040 775 7048 770 7071 770 7097 770 7101 773 7098 793 7095 815 7062 829 7047 814Z"/></g></svg>